<svg xmlns="http://www.w3.org/2000/svg" 
viewBox="0 0 1440 320"><path fill="#0099ff" fill-opacity="1"
 d="M0,32L30,37.3C60,43,120,53,180,74.7C240,96,300,128,360,154.7C420,181,480,203,540,208C600,213,660,203,720,165.3C780,128,840,64,900,64C960,64,1020,128,1080,181.3C1140,235,1200,277,1260,266.7C1320,256,1380,192,1410,160L1440,128L1440,0L1410,0C1380,0,1320,0,1260,0C1200,0,1140,0,1080,0C1020,0,960,0,900,0C840,0,780,0,720,0C660,0,600,0,540,0C480,0,420,0,360,0C300,0,240,0,180,0C120,0,60,0,30,0L0,0Z">
 </path></svg>